<svg id="Group_489" data-name="Group 489" xmlns="http://www.w3.org/2000/svg" xmlns:xlink="http://www.w3.org/1999/xlink" width="696.532" height="501.531" viewBox="0 0 696.532 501.531">
  <defs>
    <clipPath id="clip-path">
      <rect id="Rectangle_822" data-name="Rectangle 822" width="696.532" height="501.531" fill="none"/>
    </clipPath>
  </defs>
  <g id="Group_488" data-name="Group 488" clip-path="url(#clip-path)">
    <path id="Path_23731" data-name="Path 23731" d="M492.633,302.132q.324,68.4.646,136.7c.675.446.893-.037,1.217-.259a18.442,18.442,0,0,1,2.564-1.656,1.025,1.025,0,0,1,1.428,1.349,11.8,11.8,0,0,1-1.56,2.918c-1.118,1.515-2.379,2.923-3.555,4.345v3.792a6.142,6.142,0,0,0,1.206.273q7.344.159,14.688.271a3.076,3.076,0,0,0,.623-.149c-.068-.472-.105-.962-.215-1.435-.215-.918-.548-1.815-.688-2.742a8.8,8.8,0,0,1,.005-2.3,1.367,1.367,0,0,1,1.191-1.18c.543-.053,1.038.377,1.189,1.123.2,1,.353,2.016.577,3.328.428-.516.7-.81.931-1.128,1.226-1.653,2.409-3.339,3.679-4.957a3.546,3.546,0,0,1,2.319-1.514,1.642,1.642,0,0,1,1.137.364,1.029,1.029,0,0,1,.109.95,7.821,7.821,0,0,1-1.08,1.736c-.993,1.184-2.066,2.3-3.075,3.471-1.116,1.294-2.2,2.619-3.214,3.84.207.788.694.645,1.088.654q7.988.18,15.975.347c18.295.387,36.589.8,54.885,1.142,5.754.108,11.512-.006,17.267.055a17.106,17.106,0,0,1,3.8.543,7.855,7.855,0,0,1,3.543,2.021,5.568,5.568,0,0,1,1.735,5.374,11,11,0,0,1-1.851,4.21,18.367,18.367,0,0,1-4.973,4.808,33.467,33.467,0,0,1-7.336,3.705,107.006,107.006,0,0,1-23.47,5.653,230.014,230.014,0,0,1-26.224,1.518c-7.645.1-15.291.22-22.931.494a148.646,148.646,0,0,0-27.314,3.4c-10.041,2.258-20.03,4.752-30.041,7.147q-12.775,3.055-25.764,5.012c-6.884,1.032-13.793,1.83-20.73,2.322a226.1,226.1,0,0,1-31.418.309c-6-.409-12-.756-17.992-1.256-6.418-.535-12.821-1.243-19.236-1.823-4.533-.409-9.07-.827-13.614-1.066-5.489-.288-10.987-.5-16.483-.551a152.678,152.678,0,0,0-25.155,1.862c-7.376,1.158-14.744,2.364-22.113,3.567a191.42,191.42,0,0,1-39.006,2.663,149.388,149.388,0,0,1-39.194-6.878c-5.637-1.795-11.319-3.459-17.014-5.065a67.889,67.889,0,0,0-16.525-2.421c-4.634-.133-9.275-.084-13.913-.075-8.505.015-17.011.182-25.513.053-6.008-.092-12.014-.514-18.014-.887q-7.971-.495-15.928-1.219c-5.986-.543-11.961-1.209-17.942-1.815-4.1-.416-8.2-.818-12.3-1.233-3.93-.4-7.859-.813-11.79-1.2q-7.05-.7-14.1-1.364c-7.178-.685-14.374-1.23-21.478-2.537a18.542,18.542,0,0,1-7.794-3.2,8.774,8.774,0,0,1-3.82-8.488,12.727,12.727,0,0,1,1.852-5.309,17.816,17.816,0,0,1,4.112-4.576,29.046,29.046,0,0,1,10.552-5.2,50.641,50.641,0,0,1,9.891-1.642c7.981-.571,15.975-.336,23.962-.395,16.582-.122,33.164-.157,49.746-.231,1.718-.008,3.436-.026,5.154-.069a8.3,8.3,0,0,0,1.236-.218,9.047,9.047,0,0,0-1.158-3.222c-.632-1.5-1.365-2.963-1.933-4.487a16.386,16.386,0,0,1-.7-3c-.042-.248.237-.549.432-.958a12.538,12.538,0,0,1,2.962,4.643c.711,1.528,1.282,3.12,1.967,4.811a20.768,20.768,0,0,1,1.553-1.429.7.7,0,0,1,1.075.623c-.106.926-.291,1.842-.462,2.873,1.768.666,3.568.2,5.32.25a30.908,30.908,0,0,0,5.5-.174,7,7,0,0,0-.348-1.065,12.017,12.017,0,0,0-3.963-4.325,9.046,9.046,0,0,1-3.135-3.349,1.046,1.046,0,0,1,.026-.925,1.06,1.06,0,0,1,.9-.325,5.07,5.07,0,0,1,1.61.753,17.038,17.038,0,0,1,4.422,4.633l1.053,1.646c.185-.016.3.006.349-.039a.352.352,0,0,0,.055-.242c-.037-1.029-.107-2.058-.112-3.087-.006-1.367-.033-2.742.089-4.1a4.823,4.823,0,0,1,.7-1.9,1.371,1.371,0,0,1,1.018-.606,1.333,1.333,0,0,1,.937.684,4.006,4.006,0,0,1,.433,1.721,30.847,30.847,0,0,1-.25,4.355c-.291,1.946-.764,3.864-1.156,5.774,1.4.6,1.4.6,4.135.373.148-.4.331-.86.483-1.327a19.805,19.805,0,0,1,4.707-7.6,3.475,3.475,0,0,1,3.111-1.363,1.033,1.033,0,0,1,.127,1.39c-.337.6-.763,1.139-1.136,1.715-1.167,1.8-2.345,3.592-3.479,5.413a12.973,12.973,0,0,0-.742,1.742,39.986,39.986,0,0,0,5.208.1c.33-.4.529-.815.857-1,.434-.244.477-.167,1.851.7.518-.981.977-2,1.564-2.929.891-1.414,1.908-2.031,2.32-1.505.726.925-.047,1.763-.335,2.609-.211.621-.5,1.215-.785,1.895a4.723,4.723,0,0,0,.877.2q43.942-.263,87.887-.549c.133,0,.266-.148.487-.28,0-.713-.63-1.133-.936-1.707-.282-.53-.671-1.007-.914-1.551a7.947,7.947,0,0,1-.638-1.947,7.255,7.255,0,0,1,.08-1.634.967.967,0,0,1,1.462.338c.478.81.9,1.654,1.309,2.5.318.665.572,1.36.962,2.3.5-1.1.87-1.958,1.282-2.794a3.862,3.862,0,0,1,1.787-2.117,1.759,1.759,0,0,1,1.2-.056c.558.214.609.794.517,1.323a6.457,6.457,0,0,1-1.406,3c-.583.714-1.153,1.439-1.678,2.1a2.3,2.3,0,0,0,.2.388.318.318,0,0,0,.2.11c4.893,0,9.786,0,14.9,0-.219-.6-.35-1.049-.55-1.469-.441-.928-.941-1.828-1.367-2.762a4.649,4.649,0,0,1-.319-1.239c-.078-.517.314-1.2.743-1.193a1.615,1.615,0,0,1,1.109.436,5.293,5.293,0,0,1,.816,1.589c.519,1.452.985,2.922,1.527,4.547,1.378.056,2.824.069,4.261.184,1.453.117,2.9.335,4.367.511l1.727-1.312c.24.342.427.585.589.845.13.21.229.44.348.674,2.306.336,4.631.068,7.017.4,0,1.044,0,1.968,0,2.892a8,8,0,0,0,.637,3.52,4.3,4.3,0,0,0,3.985,2.8,27.712,27.712,0,0,1,7.884.868,8.509,8.509,0,0,0,2.567.1c5.494-.2,10.99-.364,16.479-.661a20.707,20.707,0,0,0,4.792-.891c3.037-.914,5.047-2.85,5.413-6.168.028-.256.071-.51.112-.765a1.942,1.942,0,0,1,1.7-1.678c.673-.138,1.344-.305,2.024-.384a71.137,71.137,0,0,1,7.164-.743c7.126-.1,14.257-.137,21.384-.018,9.877.166,19.751.56,29.628.742,17.437.322,34.877.538,52.314.833q23.836.4,47.673.875c.914.016,1.829,0,2.9,0a9.289,9.289,0,0,0-1.12-2.2c-.377-.861-.783-1.715-1.075-2.606a1.227,1.227,0,0,1,.835-1.417,1.1,1.1,0,0,1,1.368.412,13.359,13.359,0,0,1,1.072,2.323c.4,1.122.7,2.277,1.061,3.455l1.538.067c.068-.32.161-.488.122-.616a9.177,9.177,0,0,1-.548-3.8,4.133,4.133,0,0,1,.468-1.431.954.954,0,0,1,1.532-.127,1.858,1.858,0,0,1,.292.423c.2.463.386.936.645,1.573.051-1.132.133-2.106.133-3.081,0-7.818-.05-15.636-.033-23.454q.1-42.785.236-85.569c.035-9.707.17-19.414.273-29.121a5.366,5.366,0,0,1,.3-2.6h1.311v7.42c.9-2.352,1.319-4.8,2.445-7.017l.6.027.792,1.49c-.138.394-.275.8-.42,1.2a26.975,26.975,0,0,0,.278,19.792c.666,1.663,1.2,3.381,1.806,5.067.132.363.04.883.754,1.041,0-1.894,0-3.752,0-5.61q-.02-11.421-.042-22.844l1.85.017m-6.1,146.258a1.128,1.128,0,0,0,1.673.469c.459-.259.6-1.01.211-1.245a2.661,2.661,0,0,0-1.131-.344c-.479-.039-.712.324-.831.752-.379.6-.831.114-1.378.07.127.523-.912,1.165.386,1.556l1.07-1.258m.365-124.95q-.227-.482-.454-.965l-.236.1q.185.5.37,1c.108,1.107.2,2.216.327,3.32.44,3.741.962,7.475,1.321,11.224.327,3.409.466,6.837.734,10.253.032.409-.225,1.012.522,1.293a86.912,86.912,0,0,0,.771-11.575,32.333,32.333,0,0,0-2.789-12.962,15.683,15.683,0,0,1-.566-1.683m1.238,64.137c.716.7.2,1.5.019,2.14a21.166,21.166,0,0,0-.347,7.673q.455,5.388,1.051,10.765a110.362,110.362,0,0,1,.835,15.418,8,8,0,0,0,.094,2.05,80.379,80.379,0,0,1,1.272,8.132,23.116,23.116,0,0,1-.016,6.918,8.767,8.767,0,0,0-.142,1.279c-.007.339-.222.746.209,1.09a3.269,3.269,0,0,0,.394-.719,5.224,5.224,0,0,0,.08-1.019c.008-.257-.017-.514-.024-.772-.01-.343-.017-.687-.023-1.03-.005-.258-.007-.515-.011-.773,0-.343-.008-.687-.01-1.03,0-.258,0-.516,0-.773,0-.344,0-.687-.012-1.031-.009-.257-.045-.513-.052-.77-.009-.343,0-.687,0-1.03,0-.258.007-.516.011-.773.005-.344.01-.687.014-1.031,0-.257.009-.515.009-.773,0-.343,0-.687,0-1.03,0-.257-.024-.515-.028-.772-.007-.344-.006-.687-.007-1.031,0-.257,0-.515,0-.773v-1.03c0-.258,0-.516,0-.773,0-.344-.01-.687-.016-1.03,0-.258-.009-.516-.011-.773,0-.344,0-.687,0-1.031,0-.257,0-.515,0-.773,0-.343,0-.687,0-1.03,0-.258,0-.516,0-.773-.005-.344-.017-.687-.023-1.03,0-.258,0-.516-.005-.773v-1.031c0-.257,0-.515,0-.773,0-.343,0-.687,0-1.03,0-.258,0-.515-.007-.773-.007-.343-.021-.687-.028-1.03-.005-.258,0-.515,0-.773,0-.344,0-.687,0-1.031v-.772c0-.258,0-.516,0-.773,0-.344,0-.687-.007-1.031,0-.258-.009-.515-.01-.773,0-.343,0-.687,0-1.03q0-.387,0-.773c0-.344,0-.687,0-1.031,0-.257,0-.515,0-.773,0-.343-.008-.687-.011-1.03,0-.258,0-.515,0-.773,0-.344,0-.687,0-1.031v-.772c0-.344,0-.687,0-1.031,0-.258,0-.515,0-.773,0-.343-.01-.687-.013-1.03,0-.258,0-.516,0-.773v-1.031q0-.386,0-.773c0-.343,0-.687,0-1.03,0-.258-.006-.515-.009-.773,0-.344-.005-.687-.007-1.031,0-.257,0-.515,0-.772v-1.031c0-.258,0-.515,0-.773,0-.343,0-.687,0-1.03,0-.258-.011-.516-.013-.773,0-.344,0-.687,0-1.031q0-.386,0-.773v-1.03c0-.258,0-.515,0-.773,0-.344,0-.687-.006-1.031,0-.257-.01-.515-.012-.772,0-.344,0-.687,0-1.031,0-.258,0-.515,0-.773v-1.03q0-.387,0-.773c0-.344,0-.687-.005-1.031,0-.257-.014-.515-.018-.772s0-.516,0-.773c0-.344,0-.687,0-1.031,0-.258,0-.515,0-.773,0-.343,0-.687,0-1.03,0-.258,0-.516,0-.773,0-.344-.013-.687-.018-1.031,0-.257-.006-.515-.006-.772,0-.344,0-.688,0-1.031v-.773c0-.343,0-.687,0-1.03,0-.258,0-.516,0-.773-.005-.344-.014-.687-.019-1.031,0-.257,0-.515,0-.773v-2.834c0-.257,0-.515,0-.772-.005-.344-.016-.687-.023-1.031-.005-.257-.01-.515-.012-.772,0-.344,0-.687,0-1.031v-.773c0-.343,0-.687,0-1.03,0-.258,0-.516,0-.773-.01-.343-.032-.686-.042-1.029-.008-.258-.007-.516-.008-.773,0-.344,0-.687,0-1.031v-.773c0-.343,0-.687,0-1.03,0-.258,0-.516-.005-.773-.01-.343-.032-.686-.045-1.029-.01-.258-.015-.515-.021-.773-.008-.344-.012-.687-.021-1.03-.007-.258-.01-.516-.032-.772-.03-.342-.1-.682-.108-1.024-.005-.164-.139-.565.427-.244-1.113,1.65-.875,3.612-1.227,5.452a43.784,43.784,0,0,0-.747,8.958c.094,5.923.072,11.85-.014,17.774-.035,2.4-.365,4.789-.561,7.183a.679.679,0,0,1-.586.707c-.134-.287-.421-.6-.38-.858.932-5.972.613-11.977.519-17.976-.01-.679-.145-1.356-.222-2.034-1.207-.554-.655-1.546-.531-2.367a65.836,65.836,0,0,0,.632-13.85c-.2-3.339-.289-6.688-.58-10.019-.344-3.927-.83-7.843-1.3-11.759-.4-3.319-.852-6.631-1.282-9.946V317.4l-.263-.012v1.427c-.049,1.8-.132,3.6-.143,5.4q-.187,32.037-.353,64.076c-.019,3.714,0,7.428,0,11.7,1.435-4.16,2.872-7.731,2.3-11.708a16.644,16.644,0,0,1-.07-2.313,161.983,161.983,0,0,1,.646-17.219,14.406,14.406,0,0,1,.456-1.766c.3.621.562.9.547,1.157-.2,3.336-.5,6.666-.641,10-.12,2.912-.062,5.83-.079,8.746,0,.239.358.539.787.679m-2.743,54.5c.21-.982.364-1.737.535-2.488.682-3.013,1.424-6.014,2.043-9.039.924-4.513.862-4.967-.537-9.321q-.158-.49-.317-.98-1.419-4.36-2.839-8.719c-.229,4.677-.22,9.314-.232,13.951-.014,5.327-.051,10.654-.063,15.981a2.6,2.6,0,0,0,.249.734l1.161-.119m3.106-21.682c.294-7.183-1.006-14.263-1.46-21.4-.044-.679-.18-1.352-.287-2.026-.01-.062-.111-.124-.183-.159-.052-.025-.125-.005-.284-.005-.275,1.048-.546,2.119-.837,3.184a21.8,21.8,0,0,0-.188,10.661,49.9,49.9,0,0,0,3.239,9.749m.71,26.012a42.386,42.386,0,0,0,.335-16.756c-.233.3-.386.417-.42.559-.845,3.575-1.718,7.144-2.493,10.734a13.219,13.219,0,0,0-.335,5.32l2.913.143m2.339,1.641c-.766.121-.947.752-1.394,1.339,1.424.041,1.424.041,1.394-1.339" fill="#1f375d"/>
    <path id="Path_23732" data-name="Path 23732" d="M216.9,138.923c-5.148,1.9-7,1.381-9.854-2.774-.4-.031-.894-.044-1.383-.113a4.607,4.607,0,0,1-4.174-4.217,38.174,38.174,0,0,1,.129-4.7,8.9,8.9,0,0,1-1.733-5.145,8.5,8.5,0,0,1,2.231-5.213c-1.3-3.436-.513-6.343,2.629-8.451.028-3.859.846-7.156,5.316-8.112a18.943,18.943,0,0,1,1.009-2.3,13.955,13.955,0,0,1,2.064-2.922,5.645,5.645,0,0,1,6.14-1.523,7.832,7.832,0,0,0,1.116.2c1.461-2.057,3.191-3.835,5.742-4.455a9.459,9.459,0,0,1,7.053.986c1.408-1.321,2.883-2.4,4.974-2.293,2.032.1,3.514,1.237,5.155,2.4,2.222-1.182,4.529-1.583,6.745,0,2.174,1.558,2.658,3.888,2.647,6.337.229.24.4.43.581.609a5.866,5.866,0,0,1,.321,8.5,16.967,16.967,0,0,1-2.417,1.886c-.269.2-.551.389-.87.614a13.1,13.1,0,0,0,.517,5.34,26.974,26.974,0,0,0,2.6,5.87,36.673,36.673,0,0,1,1.781,3.423c.728,1.692.14,2.662-1.647,2.872-.6.07-1.2.069-1.8.082s-1.176,0-1.763,0c-.779,1.247-.223,2.616-.671,3.961a13.412,13.412,0,0,0-1.619.989.991.991,0,0,0-.257.887,1.08,1.08,0,0,0,.76.532,7.29,7.29,0,0,0,1.272-.1c.855-.031,1.235.444,1.085,1.3a5.183,5.183,0,0,1-1.6,2.88c-.549.526-1.176.969-1.772,1.452a.634.634,0,0,0,.79.727,2.047,2.047,0,0,1,2.18,1.015c.188.3.685.421,1.052.6a2.6,2.6,0,0,1,1.646,2.873,10.949,10.949,0,0,1-.6,2.232c-.861,2.329-1.764,4.643-2.689,7.064a9.528,9.528,0,0,0,3.268,1.741,66.83,66.83,0,0,0,10.338,3.123,89.351,89.351,0,0,1,14,4.322,87.38,87.38,0,0,1,23.13,14.782,151.205,151.205,0,0,1,19.52,20.861,111.2,111.2,0,0,1,11.9,17.729,112.731,112.731,0,0,1,7.452,18.348c2.211,7.13,4.3,14.3,6.376,21.47a38.7,38.7,0,0,1,1.485,8.614c.033.6.064,1.2.047,1.8a3.755,3.755,0,0,1-1.627,3.071c-.618.448-1.251.878-1.934,1.355l2.18,11.291c.891,0,1.822-.033,2.75.007,2.112.09,2.884.885,2.979,3.04.041.938.04,1.878.069,2.817,0,.071.1.139.219.31a19.463,19.463,0,0,0,3.472-.175c2.831-.144,5.662-.287,8.494-.38a12.052,12.052,0,0,1,2.566.186,5.31,5.31,0,0,1,4.793,4.954c.2,1.273.35,2.553.491,3.833a79.87,79.87,0,0,1-.355,21.069,21.281,21.281,0,0,1-.5,2.257,5.694,5.694,0,0,1-4.892,4.353,24.742,24.742,0,0,1-4.61.422A147.9,147.9,0,0,0,339.377,325a139.482,139.482,0,0,1-19.505,1.584,21.908,21.908,0,0,1-3.065-.282A4.209,4.209,0,0,1,313.4,323.5a11.438,11.438,0,0,1-.446-1.208c-1.42-5.126-3.03-10.207-3.989-15.45a34.343,34.343,0,0,1-.669-8.458,27.657,27.657,0,0,1,.4-3.058,6.059,6.059,0,0,1,4.557-5.071,36.686,36.686,0,0,1,5.793-1.173c2.64-.306,5.308-.381,7.963-.558.339-.023.677-.059,1.14-.1,0-.523.013-1-.005-1.474-.013-.342-.1-.683-.1-1.024.018-2.367.45-4.092,3.619-4.24a13.032,13.032,0,0,0,1.579-.277c.023-.49.061-.9.06-1.314,0-2.229-.059-4.46,0-6.688a4.448,4.448,0,0,0-.484-2.174c-1.735-3.641-3.336-7.345-5.005-11.017-1.705-3.75-3.41-7.5-5.162-11.23a54.234,54.234,0,0,0-5.911-9.65,157.9,157.9,0,0,0-14.931-17.389,53.772,53.772,0,0,0-13.4-9.939c-1.137-.575-2.326-1.048-3.734-1.676a9.438,9.438,0,0,0-.034,1.636c1.422,8.041,2.4,16.137,3.071,24.271q.952,11.558,1.849,23.119c.061.77.1,1.545.081,2.317a2.174,2.174,0,0,1-1.729,2.269,22.521,22.521,0,0,1-2.787.392c-.5.056-1.005.05-1.665.078-.025.621-.087,1.111-.058,1.6.3,5.146.625,10.29.919,15.436.209,3.689.369,7.38.571,11.069q1.017,18.657,2.043,37.314c.217,4.032.412,8.066.551,12.1.433,12.622.938,25.243,1.223,37.868.379,16.749.6,33.5.833,50.252.041,2.917-.193,5.837-.254,8.757-.039,1.923-.648,3.365-2.747,3.771a2.787,2.787,0,0,0-.715.419c.074.5.116,1.01.225,1.5a2.456,2.456,0,0,0,2.338,2.05,24.235,24.235,0,0,0,2.826-.022c3.519-.091,7.039-.235,10.559-.265a16.682,16.682,0,0,1,6.871,1.47c.229-.541.462-1.074.682-1.612a12.5,12.5,0,0,1,2.879-4.532,6.357,6.357,0,0,1,1.935-1.2,1.092,1.092,0,0,1,1.372,1.316,4.918,4.918,0,0,1-.931,1.792,37.458,37.458,0,0,1-3.257,3.29,4.76,4.76,0,0,0-1.8,3.277,5.046,5.046,0,0,1-3.468,4.417,14.719,14.719,0,0,1-4.477,1.049c-5.835.284-11.677.406-17.517.585a5.054,5.054,0,0,1-1.03-.021,31.936,31.936,0,0,0-8.447-.522,2.784,2.784,0,0,1-2.847-1.837,7.806,7.806,0,0,1-.646-2.716c-.069-1.713.054-3.434.092-5.152.01-.494,0-.988,0-1.547a6.76,6.76,0,0,0-2.366-.08c-2.283-.038-3.329-.816-3.731-3.074-.3-1.688-.418-3.409-.586-5.118q-1.272-12.951-2.522-25.9-.9-9.361-1.754-18.728c-.6-6.5-1.231-13-1.79-19.5-.287-3.338-.544-6.684-.643-10.031-.291-9.79-.445-19.584-.752-29.373-.218-6.955-.458-13.913-.935-20.854-.88-12.8-2.811-25.427-7.039-37.611a10.19,10.19,0,0,0-.785-1.889,1.447,1.447,0,0,0-2.394-.365,11.251,11.251,0,0,0-1.827,2.759,21.22,21.22,0,0,0-1.1,3.426,139.089,139.089,0,0,0-4.7,27.893c-.267,4.543-.23,9.1-.323,13.656-.115,5.583-.125,11.17-.359,16.748a71.951,71.951,0,0,1-3.771,20.967,41.673,41.673,0,0,1-17.5,21.923,72.767,72.767,0,0,1-16.059,7.491,222.537,222.537,0,0,1-33.663,8.469,77.118,77.118,0,0,1-16.945,1.1c-2.567-.138-5.123-.493-7.682-.775a5.337,5.337,0,0,1-4.9-4.256,6.94,6.94,0,0,0-.255-.721,1.019,1.019,0,0,0-.165-.216,1.549,1.549,0,0,0-1.869.384,5.485,5.485,0,0,0-1.31,1.839,7.349,7.349,0,0,0-.251,3.813c.509,3.744.971,7.495,1.5,11.237a8.1,8.1,0,0,1-.221,3.568,3.877,3.877,0,0,1-5.992,2.208,5.751,5.751,0,0,1-2.384-2.958c-.625-1.687-1.222-3.391-1.7-5.124a53.048,53.048,0,0,1-2.2-16.789c.114-2.3.571-4.59.884-6.883a7.239,7.239,0,0,1,.248-1,6.368,6.368,0,0,1,5.433-4.842c1.775-.3,3.558-.561,5.419-.852l.707-1.746c.781-.141,1.611-.327,2.45-.435,8.432-1.087,16.878-2.068,25.292-3.271a166.785,166.785,0,0,0,18.205-3.464c.332-.086.671-.147,1-.233a28.838,28.838,0,0,0,19.083-14.923,110.688,110.688,0,0,0,5.682-12.114,36.379,36.379,0,0,0,2.586-14.1c-.135-5.495-.383-10.988-.657-16.478-.176-3.517-.458-7.029-.744-10.539-.657-8.047-1.366-16.09-2-24.138a35.673,35.673,0,0,1,.139-4.006,3.561,3.561,0,0,0-.968-.224,105.424,105.424,0,0,1-14.874-1.32c-.171-.023-.342-.038-.511-.071-2.069-.4-2.659-1.113-2.476-3.174.114-1.28.344-2.552.551-3.823,2.141-13.133,4.313-26.262,6.407-39.4.377-2.367.418-4.787.646-7.18a5.58,5.58,0,0,0-1.138-3.829,48.953,48.953,0,0,1-7.255-16.116,41.019,41.019,0,0,1,.2-21.388,21.9,21.9,0,0,1,13.214-14.84,48.716,48.716,0,0,1,8.364-2.525c1.339-.3,2.689-.583,3.989-1.01,3.7-1.213,5.37-3.343,5.473-7.194.061-2.312-.135-4.633-.264-6.947a6.685,6.685,0,0,0-.406-1.433m33.021-34.374.591-1.224c-.165.017-.279,0-.309.038-.215.29-.413.593-.617.892l.377.255c.374.182.537.573.215.775a5.337,5.337,0,0,1-6.037-.121,3.416,3.416,0,0,0-4.1.058,5.057,5.057,0,0,1-1.345.73,12.921,12.921,0,0,1-1.931.281c1.72.306,1.762.383,2.63-.154a4.447,4.447,0,0,1,5.272-.008,2.924,2.924,0,0,0,.689.339,5.949,5.949,0,0,0,7.238-2.854c.514-1.007.518-1.07.17-2.708a14,14,0,0,1-.706,2.191,7.774,7.774,0,0,1-1.351,1.825c-.256.266-.625.05-.791-.315M219.466,154.9a13.173,13.173,0,0,0,.236,1.518c2.416,8.845,4.3,17.811,6.058,26.8,1.134,5.8,2.133,11.622,3.208,17.431.14.761.371,1.505.676,2.719.314-1.137.54-1.783.668-2.448a77.926,77.926,0,0,0,1.725-13.747c.023-1.882.193-3.764.177-5.644-.015-1.8-.192-3.593-.285-5.389s-.233-3.6-.239-5.394a43.416,43.416,0,0,1,.25-5.114,4.1,4.1,0,0,1,.951-1.749,5.526,5.526,0,0,1,1.017-.883c.2-1.719.378-3.245.556-4.772.372-1.5.752-3,1.116-4.5.831-3.418,1.623-6.845,2.493-10.253a15.662,15.662,0,0,1,2.491-5.338c1.5-2.068,2.372-2.3,4.77-1.3a1.1,1.1,0,0,0,.254.04c1.955-.788,2.184-.89,2.966-1.907a6.027,6.027,0,0,0,.577-1.4,10.517,10.517,0,0,1-1.434-.245c-1.858-.611-2.19-2.179-.741-3.533a16.839,16.839,0,0,1,1.481-1.106c0-.7-.017-1.386.005-2.068s-.048-1.395.661-1.925c1.652-.4,3.5.409,5.136-.326a2.506,2.506,0,0,0-.463-2.313c-.822-1.507-1.693-2.987-2.544-4.478a14.74,14.74,0,0,1-1.981-6.6c-.04-.757-.107-1.512-.167-2.334a20.663,20.663,0,0,1-2.845-.314,24.49,24.49,0,0,1-2.888-1.071,2.377,2.377,0,0,0-2.215.266,5.107,5.107,0,0,1-5.128.5,2.189,2.189,0,0,0-2.9.938c-.4.559-.686,1.191-1.077,1.755a23.191,23.191,0,0,1-1.84,2.471,5.967,5.967,0,0,1-5.257,2.18,9.93,9.93,0,0,0-1.722.106c-.153.64-.252,1.145-.4,1.636a6.075,6.075,0,0,1-5.589,4.558c-.856.058-1.7.105-2.284-.8a1.624,1.624,0,0,0-1.631-.544,2.455,2.455,0,0,0-2.242,2.9,7.275,7.275,0,0,0,.941,2.635,18.711,18.711,0,0,0,2.189,2.855,16.532,16.532,0,0,1,3.962,7.969,50.366,50.366,0,0,1,.919,8.956,12.928,12.928,0,0,1-.534,4.837,2.859,2.859,0,0,0,0,2.015c.284.8.61,1.593.919,2.388m31.588,29.679c.068,1.284.111,2.828.238,4.366a54.232,54.232,0,0,1-.46,12.845,81.056,81.056,0,0,1-5.495,19.255,5.709,5.709,0,0,0-.389,3.492,51.777,51.777,0,0,0,16.039,28.726,31.405,31.405,0,0,0,11.744,7.239q3.555,1.123,7.186,2a17.29,17.29,0,0,0,5.618.539c2.578-.238,2.814-.445,2.62-2.965-.539-7.019-1.03-14.044-1.724-21.049-.879-8.882-1.946-17.743-3.388-26.558a219.282,219.282,0,0,0-5.619-25.889c-.814-2.8-1.691-5.581-2.512-8.38-.154-.526-.519-1.1.15-1.788a9.535,9.535,0,0,1,.723,1.333c.88,2.509,1.722,5.032,2.587,7.546.1.3.17.693.8.512.167-.831.386-1.723.518-2.628.135-.934.173-1.881.278-2.819a4.955,4.955,0,0,1,.86-2.856,21.862,21.862,0,0,1-.171,5.231c-.151.929-.226,1.871-.31,2.809-.008.1.165.207.239.295.525.021.492-.954,1.272-.54-.32,1.59-1.356,2.861-2.158,4.277.762,3.091,1.493,6.176,2.287,9.245.812,3.139,1.2,6.381,2.16,9.486,8.216,2.953,14.828,8.075,20.64,14.282,3.108,3.319,6.011,6.832,8.971,10.288a81.7,81.7,0,0,1,13.051,21.184c1.957,4.574,4.062,9.086,6.1,13.625.349.776.708,1.547,1.082,2.362,3.4.167,6.32-.991,9.2-2.357a3.514,3.514,0,0,0,2.286-4.11c-.341-2.029-.516-4.094-.969-6.1a237.327,237.327,0,0,0-9.532-31.235,93.085,93.085,0,0,0-12.833-23.4c-4.14-5.488-8.455-10.831-13.12-15.884a116.868,116.868,0,0,0-16.549-15.067,70.586,70.586,0,0,0-22.355-11.393c-3.956-1.134-7.948-2.141-11.928-3.187-.117-.031-.286.138-.432.214a1.6,1.6,0,0,0,.041.5,10.727,10.727,0,0,0,.58,1.148c1.739,2.99,2.053,4.341-.823,7.286-.24.246-.472.5-.69.765a3.734,3.734,0,0,0-.9,3.348c.1.418.12.852.219,1.268a7.8,7.8,0,0,1-.985,5.945c-1.263,2.141-2.592,4.242-4.156,6.791m-34.115-3.832c-.075.625-.11,1.258-.233,1.874a37.8,37.8,0,0,0-.835,7.411,6.6,6.6,0,0,0,.345,2.256,65.337,65.337,0,0,0,8.077,15.477,8.894,8.894,0,0,0,1.606,1.65,1.234,1.234,0,0,0,1.809-.325,3.96,3.96,0,0,0,.858-2.888c-.168-1.708-.24-3.434-.536-5.12-.847-4.816-1.837-9.608-2.656-14.43a5.088,5.088,0,0,0-1.732-3c-1.734-1.656-3.327-3.464-4.924-5.258a3.792,3.792,0,0,1-.96-3.322c.44-2.707-.334-3.969-2.83-5.025-.631-.267-1.3-.443-1.926-.724-2.164-.975-2.922-2.332-2.663-4.729a9.553,9.553,0,0,1,.242-1.262c.5-2,1.021-3.99,1.5-5.993a6.238,6.238,0,0,0-.027-1.358c-3.841,1.111-7.529,1.969-11.066,3.245-6.674,2.408-10.928,7.17-12.9,14.009a39.591,39.591,0,0,0,.312,22.6,52.036,52.036,0,0,0,12.839,21.447,49.85,49.85,0,0,0,12.1,9.523,26.518,26.518,0,0,0,15.6,3.446c1.959-.2,3.9-.578,5.844-.914a9.47,9.47,0,0,0,6.459-4.3,30.269,30.269,0,0,0,2.553-4.745c.911-2.125,1.675-4.32,2.388-6.521a65.488,65.488,0,0,0,3.484-22.019c-.157-6.1-.157-12.194-.3-18.29-.08-3.346-.314-6.689-.494-10.033-.032-.588-.039-1.223-.761-1.493-2.418.53-4.858,1.018-7.274,1.609-2.39.584-4.886.787-7.224,1.832-.059.762-.165,1.44-.154,2.116.044,2.919.006,5.846.215,8.755a85.915,85.915,0,0,1-.078,13.892,90.928,90.928,0,0,1-3.319,17.159,9.937,9.937,0,0,1-1.129,2.58,2.826,2.826,0,0,1-4.438.634,7.821,7.821,0,0,1-1.386-1.515c-.933-1.336-1.867-2.679-2.685-4.086a102.83,102.83,0,0,1-9.78-24.289,14.543,14.543,0,0,1-.2-1.986c.627.675.991.9,1.109,1.221.746,2.01,1.428,4.044,2.154,6.062.194.54.468,1.051.822,1.832,1.005-2.459.68-4.987,2.205-7M238.6,230.077c-2.4.525-4.559,1.08-6.743,1.456a28.408,28.408,0,0,1-16.632-1.925,43.049,43.049,0,0,1-10.586-6.785,69.33,69.33,0,0,1-7.25-7.313c-.3-.343-.435-.991-1.32-.8-.01.352,0,.751-.036,1.146-.2,2.308-.349,4.621-.631,6.919-.273,2.213-.677,4.41-1.039,6.611q-2.259,13.716-4.529,27.431c-.378,2.285-.807,4.563-1.144,6.855-.119.81-.463,1.7.335,2.571a85.4,85.4,0,0,0,14.42,1.7,41.392,41.392,0,0,0,7.954-.524c3.121-.577,6.26-1.058,9.383-1.624a11.528,11.528,0,0,0,5.282-2.533,25.752,25.752,0,0,0,4.407-4.674,36.973,36.973,0,0,0,4.556-8.337,53.47,53.47,0,0,0,3.118-12.715,37.557,37.557,0,0,0,.455-7.458M134.3,375.938c-2.1.4-4.027.747-5.951,1.14a4.786,4.786,0,0,0-3.637,3.285,9.837,9.837,0,0,0-.466,1.467,40.053,40.053,0,0,0-.85,9.444,57.045,57.045,0,0,0,1.91,12.674c.478,1.817,1.074,3.607,1.679,5.388a5.667,5.667,0,0,0,1.856,2.727c1.939,1.5,4.295.637,4.61-1.786a17.01,17.01,0,0,0-.069-3.838c-.169-1.7-.512-3.385-.714-5.085-.284-2.377-.641-4.757-.72-7.145-.084-2.535.956-4.491,3.619-5.234a3.1,3.1,0,0,0,.641-.354c-.512-3.932-1.014-7.821-1.53-11.709a5.844,5.844,0,0,0-.378-.974m138.033,67.957a59.133,59.133,0,0,0-.115,7.4,1.788,1.788,0,0,0,1.106,1.594,8.787,8.787,0,0,0,3.916,1.08c3.769.081,7.536.253,11.3.4a65.523,65.523,0,0,0,11.292-.385,49.894,49.894,0,0,0,5.772-1.207A3.654,3.654,0,0,0,308.026,451a1.7,1.7,0,0,0-.867-2.539,16.233,16.233,0,0,0-2.482-.632,36.184,36.184,0,0,0-9.734-.254c-2.05.151-4.106.293-6.16.3-2.294,0-3.427-.938-4.076-3.157-.183-.625-.3-1.27-.463-1.983l-11.911,1.163M242.384,145.06a3.919,3.919,0,0,1,.018-1.195c.43-1.3.945-2.575,1.412-3.866a12.084,12.084,0,0,0,.533-1.7.9.9,0,0,0-1.172-.948A2.892,2.892,0,0,0,241.6,138.6a16.117,16.117,0,0,0-2.747,6.06c-1.3,5.422-2.505,10.869-3.714,16.314a9.57,9.57,0,0,0-.017,1.881c3.692-.625,7.167-1.477,10.648-2.319.2-.673.412-1.236.517-1.819a34.444,34.444,0,0,1,2.835-8.52c.977-2.091,1.675-4.314,2.473-6.487a2.284,2.284,0,0,0,.039-1.993c-.214-.388-.427-.754-.958-.487-1.576,4.524-1.919,5.189-3.258,6.062a8.151,8.151,0,0,1,.269-1.564c.41-1.036.977-2.013,1.338-3.063a7.234,7.234,0,0,0,.329-2.252c.006-.66-.451-.833-1.59-.706-.081.386-.138.806-.259,1.207-.543,1.8-1.084,3.608-1.673,5.4-.155.472-.535.618-1.111.1.407-1.231.888-2.506,1.242-3.815a19.64,19.64,0,0,0,.52-3.014.8.8,0,0,0-.71-.967,2.142,2.142,0,0,0-.414.513c-.684,1.758-1.357,3.52-2.006,5.291-.162.441-.328.783-.97.64m-4.565,101.594a9.836,9.836,0,0,0,3.672-.122c3.221-.411,6.415-1.117,9.7-.85a1.6,1.6,0,0,0,.6-.2c.044-.179.1-.279.076-.337a13.139,13.139,0,0,0-.7-1.362,49.3,49.3,0,0,1-7-17.537c-.079-.422-.033-1.034-.652-1.157a40.861,40.861,0,0,1-2.8,3.045,3.51,3.51,0,0,0-1.141,2.7c-.207,3.5-.5,6.993-.862,10.479-.181,1.759-.573,3.5-.886,5.34m-13.407-64.091c-.127-1.017-.167-1.7-.3-2.358-1.854-9.05-3.848-18.067-6.243-26.992a.322.322,0,0,0-.154-.166.667.667,0,0,0-.2-.054l-4.244,2.861c-.6,2.74-1.209,5.494-1.805,8.25a7.2,7.2,0,0,0-.123,1.018,2.97,2.97,0,0,0,1.8,3.116c.77.367,1.592.623,2.369.977,2.737,1.246,3.606,2.716,3.2,5.667a3.586,3.586,0,0,0,.861,3.087c1.26,1.4,2.544,2.775,3.838,4.142.153.161.432.2,1,.452m26.747-1.16c.56.143.712-.225.877-.483.6-.939,1.135-1.919,1.748-2.849a7.985,7.985,0,0,0,1.151-6.863,4.957,4.957,0,0,1,1.462-5.16c.485-.485.968-.973,1.419-1.49a2.755,2.755,0,0,0,.5-3.318c-.391-.762-.758-1.537-1.112-2.317a5.341,5.341,0,0,0-3.6-3.349,17.108,17.108,0,0,1-2.582-1.137,5.072,5.072,0,0,0-2.24-.883,33.159,33.159,0,0,0-1.525,6.375,3.833,3.833,0,0,0,.619.211c2.054.226,2.409.487,2.626,2.392.233,2.043.439,4.1.489,6.151.086,3.6.036,7.2.065,10.806a5.043,5.043,0,0,0,.1,1.914m91.1,88.773-7.877,1.85a1.658,1.658,0,0,0-.224.478,40.574,40.574,0,0,0,.435,10.5,3.905,3.905,0,0,0,.327.966,1.122,1.122,0,0,0,1.488.612c.619-.252,1.21-.571,1.781-.845a6.055,6.055,0,0,0,1.48.686,3.48,3.48,0,0,0,1.722-.136c1-.39,1.94-.941,2.9-1.427.457-2.72-.635-9.5-2.036-12.682m7.018,12.8h-3.559c-.636.706-1.129,1.425-2.121,1.45a1.617,1.617,0,0,0-.942.325,3.6,3.6,0,0,1-4.472.222c-2.852,1.166-3.011,1.123-4.7-1.28-.641.086-1.316.162-1.985.272a1.089,1.089,0,0,0-1.01,1,11.341,11.341,0,0,0,.024,3.256c3.47.553,16.36-.3,19.056-1.289-.089-1.215-.183-2.476-.292-3.956M218.4,95.334a5.667,5.667,0,0,0-4.154,1.287c-1.846,1.4-2.34,3.469-2.535,5.666-.831.244-1.581.408-2.287.684a4,4,0,0,0-2.841,3.32c-.045.366-.216.839.362.987a4.074,4.074,0,0,1,3.641-4.017,8.856,8.856,0,0,0,1.547-.583c1.054-5.181,1.256-5.42,6.267-7.344m150.67,217.139a31.939,31.939,0,0,1-.566,3.815A38.717,38.717,0,0,1,367,320.217c2.326-2.247,2.348-5.017,2.074-7.744M219.474,364.7l-7.658.411c2.276,1,4.68.917,7.658-.411m-8.217-85.78c.09-2.314.183-4.628.257-6.943,0-.1-.177-.2-.42-.448-.471,2.559-.809,4.956.163,7.391m61.805,90.619a32.714,32.714,0,0,0,2.079,7.5,28.751,28.751,0,0,0-2.079-7.5M311.4,294.244c-1.424,4.548-1.459,7.476-.356,9.089-.065-1.534-.226-3.049-.166-4.556s.339-3.022.522-4.533m-35.134-15.29c.115,2.459.226,4.919.361,7.378,0,.087.246.161.524.332a16.265,16.265,0,0,0-.885-7.71m-63.008.061c-.324,3.436.039,5.809,1.108,7.07a47.665,47.665,0,0,0-1.108-7.07m72.237,151.957c.557-1.913.352-4.7-.484-7.8.117,2.921-.042,5.365.484,7.8m-67.006-70.189q-3.19,0-6.382,0a1.56,1.56,0,0,0-.241.036l.082.294a8.366,8.366,0,0,0,6.541-.331m-79.472,16.151c-.493,1.571-.074,3.051.134,4.544.039.279.009.7.639.471-.3-1.656.016-3.414-.773-5.015m135.652-12c.391,1.817.777,3.636,1.185,5.449.022.1.231.149.488.3a11.405,11.405,0,0,0-1.673-5.751m-33.468-94.9c.731-.95,1.139-1.559,1.629-2.094.466-.509,1.016-.94,1.53-1.4a3.851,3.851,0,0,0-3.159,3.5M204.446,133.391a17.56,17.56,0,0,1-.825-1.823,8.383,8.383,0,0,1-.15-1.269,3.2,3.2,0,0,0-.267-1.618c-.132,1.741-.631,3.205,1.242,4.71m18.1-39.668,3.45-1.912c-1.359,0-2.309.672-3.45,1.912M218.593,119a3.771,3.771,0,0,0,2.157-2.389L218.593,119m-4.627-18.211,1.839-1.943c-1.092.373-1.093.373-1.839,1.943M312.2,300.237l-.158-.111v3.245h.158Z" fill="#1f375d"/>
    <path id="Path_23733" data-name="Path 23733" d="M487.616,301.978l-.6-.027c-.327-.1-.647-.228-.98-.294-1.174-.236-2.406,1.153-3.548-.122-1.285-.076-2.57-.138-3.853-.231s-2.566-.241-3.851-.32-2.577-.078-3.863-.157-2.565-.238-3.85-.323q-4.371-.289-8.743-.538c-4.2-.24-8.4-.45-12.605-.705a36.612,36.612,0,0,1-3.841-.41,4.071,4.071,0,0,1-3.586-4.8,13.721,13.721,0,0,1,.571-2.507q3.043-9.707,6.139-19.4a23.712,23.712,0,0,1,1.453-3.571,6.646,6.646,0,0,1,5.865-4c.942-.041,1.887-.1,2.829-.072,2.059.063,4.117.206,6.176.265q9.921.287,19.774,1.449c.68.079,1.371.07,2.057.1a2.268,2.268,0,0,0,1.9.325l1.3.1.881.077,3.231.472c.637.174,1.228.633,1.945.31l21.942,3.857c1.235-1.6,1.457-3.883,2.748-5.478a3.769,3.769,0,0,1,2.39,1.178,111.476,111.476,0,0,1,16.726,14.84c1.388,1.519,2.755,3.065,4.031,4.678a12.589,12.589,0,0,1,1.7,2.86c1.126,2.642.35,4.73-2.138,6.064-.377.2-.777.365-1.172.532q-13.381,5.671-26.769,11.328a11.01,11.01,0,0,1-2.7.779,1.6,1.6,0,0,1-1.981-1.524,4.466,4.466,0,0,0-1.015-2.835,5.244,5.244,0,0,0-3.335-1.17c-1.62-.159-3.253-.186-4.877-.313-1.105-.087-2.2-.248-3.3-.375l.046.026-2.086.075-1.851-.017-3.166-.136m31.129-28.669c.769,1.787,3.557,4.768,10.5,11.427.384.368.637,1.051,1.479.866a2.257,2.257,0,0,0-.289-.671c-3.8-3.953-7.578-7.924-11.689-11.622m-69.157,5.219a13.213,13.213,0,0,0-2.77,11.068,30.879,30.879,0,0,1,2.77-11.068m1.038,2.384a6.99,6.99,0,0,0-1.969,4.1,11.38,11.38,0,0,0,.521,5.96c0-1.447-.078-2.52.021-3.578.1-1.094.394-2.169.569-3.258.168-1.047.93-1.951.858-3.221" fill="#eb9b24"/>
    <path id="Path_23734" data-name="Path 23734" d="M498.978,107.648c.728,1.146,1.514,2.26,2.167,3.448a19.357,19.357,0,0,1,1.577,3.454,3.291,3.291,0,0,1-1.657,4.113,22.115,22.115,0,0,1-3.056,1.242c-1.5.565-3.013,1.1-4.52,1.652l-1.568.456-1.351.472-.773.134-3.188,1.015-1.641.486c-3.132.891-6.275,1.743-9.393,2.682q-15.279,4.6-30.539,9.271a17.44,17.44,0,0,0-3.083,1.267,2.664,2.664,0,0,0-1.557,3.193,2.851,2.851,0,0,1,.113.5,1.827,1.827,0,0,1-1.962,2.144,12.163,12.163,0,0,1-2.312-.12c-7.208-1.107-14.412-2.243-21.62-3.357-1.7-.262-3.4-.455-5.1-.709a27.923,27.923,0,0,1-3.037-.554,4.094,4.094,0,0,1-3.137-4.666,12.626,12.626,0,0,1,1.468-4.371,103.562,103.562,0,0,1,9.369-15.083c1.7-2.263,3.509-4.451,5.3-6.646a20.943,20.943,0,0,1,1.654-1.625c1.825,1.217,2.551,3.191,4.18,4.59,2.531-1.019,5.03-2.322,7.6-3.467,2.508-1.119,5.038-2.188,7.558-3.279a1.58,1.58,0,0,0,1.275-.7l4.362-1.576,1.224-.7c.9-.282,1.807-.524,2.686-.853a288.171,288.171,0,0,1,30.656-9.653c5.093-1.28,6.909-.018,9.307,3.359,2.181,3.072,4.064,6.358,6.078,9.549l2.92,4.331m-6.286,2.732c-.18-.884-.207-1.2-.307-1.482a45.628,45.628,0,0,0-5.812-11.14c-.091-.129-.334-.15-.836-.357.761,1.27,1.35,2.2,1.888,3.166.587,1.047,1.14,2.114,1.681,3.186.5,1,.96,2.012,1.454,3.011a13.847,13.847,0,0,0,1.932,3.616m-74.9,14.2a8.8,8.8,0,0,0-4.611,3.962,6.951,6.951,0,0,0-1.58,3.943c1.032-1.586,1.807-2.988,2.787-4.227,1.033-1.306,2.261-2.458,3.4-3.678m-2.769-1.672a5.757,5.757,0,0,0-3.307,2.719c-1.423,2.025-1.88,3.144-1.933,5.07.607-1.168,1.03-2.08,1.543-2.939a24.871,24.871,0,0,1,1.6-2.324c.592-.777,1.245-1.506,2.1-2.526" fill="#eb9b24"/>
    <path id="Path_23735" data-name="Path 23735" d="M489.8,122.619l.773-.134a51.456,51.456,0,0,0-1.39,12.464c.035,4.536,0,9.073.008,13.61,0,.57.087,1.139.148,1.882.337-.258.65-.377.673-.537a19.475,19.475,0,0,0,.148-2.036c.135-3.506.166-7.019.417-10.516.367-5.119.89-10.227,1.347-15.339l1.568-.456c-.187,1.7-.39,3.407-.559,5.114-.7,7.094-1.147,14.2-1.16,21.335,0,.591.057,1.182.092,1.846a9.9,9.9,0,0,0,3.1-.192c4.768-.6,9.531-1.235,14.3-1.781a11.516,11.516,0,0,1,4.348-.038,17.052,17.052,0,0,0,6.324.449,2,2,0,0,1,1.951,1.011,16.693,16.693,0,0,1,1.237,2.249,173.945,173.945,0,0,1,8.716,25.269,13.285,13.285,0,0,1,.3,3.313,2.379,2.379,0,0,1-1.962,2.393,7.638,7.638,0,0,1-1.257.249q-8.586.823-17.174,1.626c-5.982.56-11.965,1.105-17.946,1.675a16.446,16.446,0,0,0-1.827.39c-.045.488-.119.9-.116,1.309q.27,39.661.553,79.324c0,.171.01.343.015.513-.716.321-1.308-.138-1.946-.311,0-4.2.088-8.4-.007-12.591s.189-8.4-.392-12.58q-.992,5.178-1.68,10.368a100.8,100.8,0,0,0-1.15,14.331l-.882-.077c.041-1.2.118-2.4.116-3.6-.019-13.911-.085-27.822-.058-41.733a120.122,120.122,0,0,1,.605-14.4,15.069,15.069,0,0,0-.146-3.327c-.556-5.351-.432-10.627,1.588-15.716.154-.39.364-.791-.173-1.243l-2.269.3a34.97,34.97,0,0,0-.21,4.924q-.255,20.349-.468,40.7-.173,17-.288,34a2.265,2.265,0,0,1-1.9-.326q.188-13.389.373-26.778.3-24.336.566-48.671c.013-1.106,0-2.212,0-3.485a14.938,14.938,0,0,0-1.584.007,106.987,106.987,0,0,0-18.346,3.9,3.5,3.5,0,0,0-1.971,1.112,1.959,1.959,0,0,1-2.128.55c-.749-.181-1.489-.406-2.222-.644q-13.21-4.279-26.415-8.575a15.084,15.084,0,0,1-1.915-.738,3.987,3.987,0,0,1-2.36-4.637,9.435,9.435,0,0,1,2.117-4.353c2.71-3.325,5.4-6.677,8.248-9.877a85.845,85.845,0,0,1,9.929-9.35c.465-.378.951-.731,1.447-1.067.121-.083.319-.052.653-.1,1.4,1.533,1.812,3.75,3.16,5.593,3.494-.786,6.882-1.979,10.358-2.823,3.582-.871,7.141-1.842,10.73-2.685,3.5-.823,7.033-1.54,10.483-2.289.1-.152.147-.219.188-.292a.6.6,0,0,0,.108-.23q.193-11.329.375-22.658c.022-1.373.01-2.747.014-4.121l1.642-.485c.019.855.062,1.711.053,2.566q-.1,11.174-.22,22.348a3.321,3.321,0,0,0,.336,2.308c.286-.02.674.059.915-.1a1.271,1.271,0,0,0,.454-.822,11.11,11.11,0,0,0,.024-1.539c.012-4.453.052-8.906.029-13.358a41.875,41.875,0,0,1,1.6-12.423m-29.15,68.431c.476-3.492,1.718-4.838,4.958-5.542.335-.073.68-.1,1.02-.148,1.618-.211,3.238-.413,4.855-.631q7.018-.948,14.038-1.906c5.787-.782,11.571-1.579,17.361-2.335,6.13-.8,12.267-1.552,18.4-2.347a30.759,30.759,0,0,0,3.8-.671,1.963,1.963,0,0,0,1.571-2.539,20.782,20.782,0,0,0-1.067-3.163c-.776-1.907-1.623-3.786-2.424-5.684-1.536-3.637-3.038-7.288-4.6-10.913a27.474,27.474,0,0,0-1.767-3.428,4.625,4.625,0,0,0-4.511-2.426c-1.713.125-3.421.3-5.132.444-6.768.567-13.473,1.606-20.143,2.836a304.885,304.885,0,0,0-32.5,7.887c-.723.217-1.474.34-2.208.507a18.749,18.749,0,0,1-2.367-3.781c-.292-.489-.66-.933-.993-1.4-3.1,2.207-8.472,7.364-9.915,9.482.277.783.9.307,1.476.367-1.177,1.627-2.315,3.2-3.457,4.772a.771.771,0,0,1-.207.144c-.035-.068-.071-.135-.175-.331.61-.936,1.26-1.935,1.913-2.931a4.076,4.076,0,0,0,.552-.859c.058-.179-.1-.464-.232-.652a.453.453,0,0,0-.442-.024,7.628,7.628,0,0,0-1.128,1.031q-3.21,3.864-6.375,7.766a13.664,13.664,0,0,0-1.42,2.144,6.788,6.788,0,0,0-.685,1.925,2.318,2.318,0,0,0,1.511,2.907,15.685,15.685,0,0,0,1.925.725q13.735,4.363,27.477,8.707a4.361,4.361,0,0,0,.9.063M487.211,251.6c.227-.343.375-.467.395-.609.7-4.837,1.505-9.663,2.042-14.519a70.856,70.856,0,0,0,.4-9.507,76.571,76.571,0,0,0-1.694-13.778c-.126-.6-.27-1.2-.516-2.29a13.072,13.072,0,0,0-.574,4.562q-.043,17.255-.05,34.511v1.63M489.9,216.73l.407.083c0-.936.005-1.872,0-2.808q-.053-8.718-.11-17.435a1.4,1.4,0,0,0-.049-.252l-.416.169c-.443,2.046-.923,4.2-1.372,6.357a12.632,12.632,0,0,0-.084,4.84q.81,4.524,1.624,9.046m.2-30.091c-.306.033-.583.007-.607.074a29.11,29.11,0,0,0-1.889,13.384c.6-.14.542-.532.63-.837.426-1.473.766-2.978,1.3-4.41a8.808,8.808,0,0,0,.726-3.962,39.413,39.413,0,0,0-.163-4.249" fill="#1f375d"/>
    <path id="Path_23736" data-name="Path 23736" d="M359.587,57.04a24.353,24.353,0,0,1-7.156-.548,8.764,8.764,0,0,1-5.7-4.477c-3.8-7.356-1.885-18.175,5.994-22.994a17.7,17.7,0,0,1,14.367-1.992c5.664,1.546,9.121,5.333,10,11.186a26.01,26.01,0,0,1-.19,8.966,10.927,10.927,0,0,1-4.337,6.771,16.089,16.089,0,0,1-8.607,3.067c-1.449.12-2.916.021-4.374.021m-9.214-23.467c-.361.195-.54.232-.61.339a16.072,16.072,0,0,0-1.546,14.965c.078.217.329.373.764.843-.469-3.027-1.288-5.575-1.171-8.262.122-2.794,1.408-5.213,2.563-7.885m.539,16.112c-.241-1.483-.474-2.967-.725-4.448-.111-.655-.257-1.3-.387-1.956a10.226,10.226,0,0,0,1.112,6.4" fill="#eb9b24"/>
    <path id="Path_23737" data-name="Path 23737" d="M663.709,129.78c.883-.546,1.523-.97,2.189-1.349a24.221,24.221,0,0,1,17.883-2.784,16.524,16.524,0,0,1,5.007,1.979c2.79,1.7,4.088,4.343,2.773,8.24a8.777,8.777,0,0,1-3.822,4.706,14.974,14.974,0,0,1-5.769,2.1c-3.651.544-7.307,1.07-10.976,1.475q-6.785.751-13.6,1.283a159.86,159.86,0,0,1-20.6.54q-12.739-.665-25.475-1.433a162.4,162.4,0,0,0-17.261-.078,110.257,110.257,0,0,1-17.507-.3c-5.031-.58-10.043-1.336-15.048-2.112a11.253,11.253,0,0,1-3.385-1.176,5.172,5.172,0,0,1-2.676-6.319,9.074,9.074,0,0,1,2.283-3.987c5.6-5.7,12.328-8.642,20.394-7.926a45.684,45.684,0,0,1,6.224,1.45c.238-.238.668-.631,1.056-1.061a22.063,22.063,0,0,1,4.906-4.147,52.33,52.33,0,0,1,19.354-7.379,18.468,18.468,0,0,1,12.427,2.249,32.556,32.556,0,0,1,10.776,9.786,3.09,3.09,0,0,0,.468.417c.454-.31.931-.64,1.411-.964,7.291-4.929,14.924-5.125,22.731-1.465,3.545,1.662,4.913,3.675,6.231,8.259M632.241,126.1a11.6,11.6,0,0,0-.545-1.868,7.724,7.724,0,0,0-1.235-1.94,37.311,37.311,0,0,0-8.243-6.948,18.7,18.7,0,0,0-13.639-2.277,53.5,53.5,0,0,0-16.725,6.459,21.386,21.386,0,0,0-5.2,4.18c-.392.435-.737.912-1.124,1.4.454.66.863,1.2,1.208,1.779.171.287.235.649-.235.8-.078-.009-.2.014-.234-.031-2-2.43-4.745-3.283-7.706-3.627-7.3-.848-13.5,1.627-18.868,6.44a13.622,13.622,0,0,0-2.226,2.813,6.522,6.522,0,0,0-.8,2.15,3.554,3.554,0,0,0,1.675,4,10.152,10.152,0,0,0,2.835,1.16c1.409.364,2.857.585,4.3.811a125.344,125.344,0,0,0,17.649,1.97c3.347.047,6.7,0,10.045-.092,8.762-.233,17.517-.329,26.272.295,5.654.4,11.318.672,16.981.939a152.62,152.62,0,0,0,15.454-.1c6.694-.363,13.359-1,20.008-1.813,3.406-.418,6.8-.948,10.185-1.515a13.215,13.215,0,0,0,5.017-1.918,8.108,8.108,0,0,0,3.395-4.079,5.2,5.2,0,0,0-2.5-6.784,12.265,12.265,0,0,0-2.126-.909,23.614,23.614,0,0,0-22.121,3.949c-.385.307-.759.756-1.34.224a4.668,4.668,0,0,1-.064-.728,7.816,7.816,0,0,0-3.312-6.9,15.9,15.9,0,0,0-3.308-1.956,21.132,21.132,0,0,0-12.867-1.224,17.563,17.563,0,0,0-9.022,4.668c-.411.394-.747,1-1.582.67" fill="#1f375d"/>
    <path id="Path_23738" data-name="Path 23738" d="M152.2,70.95c.808-.49,1.515-.952,2.252-1.36,6.229-3.458,12.755-4.421,19.615-2.21a15.764,15.764,0,0,1,3.265,1.493c2.914,1.752,3.935,4.4,2.8,8.008a9.125,9.125,0,0,1-4.839,5.435,21.643,21.643,0,0,1-7.165,1.978,331.644,331.644,0,0,1-33.873,2.951c-6.192.168-12.373-.115-18.544-.528-11.918-.8-23.824-1.655-35.787-.977a113.015,113.015,0,0,1-24.891-1.69c-1.524-.252-3.07-.4-4.577-.735a16.389,16.389,0,0,1-3.662-1.16,5.234,5.234,0,0,1-2.741-6.716,9.129,9.129,0,0,1,2.224-3.73c5.62-5.684,12.352-8.609,20.415-7.872a44.978,44.978,0,0,1,6.174,1.451,9.355,9.355,0,0,0,.745-.727,25,25,0,0,1,7.011-5.6,57.091,57.091,0,0,1,14.568-5.731,23.021,23.021,0,0,1,8.941-.552,18.609,18.609,0,0,1,7.188,2.673,33.274,33.274,0,0,1,10.094,9.422,2.288,2.288,0,0,0,.437.371c.334-.23.686-.463,1.028-.708,6.907-4.913,14.292-5.361,22-2.243a16.477,16.477,0,0,1,3.715,2.269,8.556,8.556,0,0,1,3.073,4.649c.153.563.328,1.12.539,1.837m-78.136-4.7c.393,1.014,1.448,1.5,1.225,2.6-.293-.022-.53.029-.6-.056-1.995-2.456-4.774-3.243-7.727-3.577-7.306-.825-13.49,1.69-18.841,6.516a12.8,12.8,0,0,0-2.079,2.6A6.973,6.973,0,0,0,45.2,76.47a3.6,3.6,0,0,0,1.729,4.2,9.247,9.247,0,0,0,2.849,1.123c2.35.488,4.732.827,7.1,1.23A110.244,110.244,0,0,0,79.192,84.58c5.579-.192,11.169-.411,16.745-.246,9.183.272,18.359.83,27.536,1.295a132.929,132.929,0,0,0,17-.055c5.136-.4,10.278-.747,15.4-1.257,4.185-.416,8.36-.962,12.517-1.6a32.585,32.585,0,0,0,5.452-1.461,8.517,8.517,0,0,0,4.087-3.021c2.691-3.586,1.672-7.516-2.455-9.219a21.5,21.5,0,0,0-7.517-1.612,23.6,23.6,0,0,0-15.195,4.706c-.506.374-.9,1.069-1.827.829a7.074,7.074,0,0,1-.093-1,7.8,7.8,0,0,0-3.2-6.7,15.656,15.656,0,0,0-3.283-1.995,21.117,21.117,0,0,0-13.109-1.265,17.521,17.521,0,0,0-9,4.711c-.4.392-.761,1.014-1.632.508a5.827,5.827,0,0,0-1.543-3.6,38.329,38.329,0,0,0-8.667-7.235A17.977,17.977,0,0,0,98,54.1a50.178,50.178,0,0,0-19.229,7.662,17.683,17.683,0,0,0-4.706,4.483" fill="#1f375d"/>
    <path id="Path_23739" data-name="Path 23739" d="M441.744,103.19a1.579,1.579,0,0,1-1.275.7c-.435-.527-.886-1.042-1.3-1.583a5.723,5.723,0,0,1-1.069-4.626,6.893,6.893,0,0,1,.17-.753c.778-2.764.8-2.722,3.392-4.088a270.406,270.406,0,0,1,29.011-12.614,165.415,165.415,0,0,0,18.8-8.362,24.648,24.648,0,0,0,2.439-1.434,1.493,1.493,0,0,0,.491-2.4c-.222-.366-.512-.691-.727-1.061-1.04-1.782-.576-3.427,1.347-4.191a10.432,10.432,0,0,1,3.253-.626c2.915-.155,5.837-.2,8.756-.277,8.935-.219,17.866-.042,26.8.281a6.911,6.911,0,0,1,1.281.112,3.073,3.073,0,0,1,2.59,2.535,16.612,16.612,0,0,1,.31,2.806,43.029,43.029,0,0,1-2.154,13.425c-1.2,3.757-2.648,7.434-3.987,11.146-.029.08-.068.157-.1.235-1.167,2.584-3.042,3.072-5.372,1.386-.345-.249-.65-.554-.965-.827a5.673,5.673,0,0,0-2.638,1.011,125.642,125.642,0,0,0-13.045,7.766c-2.934,1.944-5.842,3.927-8.762,5.893q-1.461-2.166-2.923-4.333c.954.089,1.57-.616,2.3-1.022q10.562-5.905,21.1-11.849a10.8,10.8,0,0,1,1.851-.887,2.241,2.241,0,0,1,2.745.812,17.576,17.576,0,0,0,1.247,1.638c1.07,1.155,2.133.983,2.819-.414q.114-.231.209-.47c1.006-2.555,2.06-5.092,3-7.669a49.259,49.259,0,0,0,3.027-12.476,33.357,33.357,0,0,0,.109-4.886c-.095-1.679-.791-2.247-2.436-2.373-.171-.013-.343-.01-.515-.017q-17.258-.758-34.522-.187a15.992,15.992,0,0,0-2.557.281,3.855,3.855,0,0,0-1.381.631.994.994,0,0,0-.376,1.353c.369.673.848,1.285,1.23,1.951a2.334,2.334,0,0,1-.312,3.068,7.893,7.893,0,0,1-1.6,1.281c-.871.546-1.787,1.024-2.7,1.5a187.878,187.878,0,0,1-20.044,8.727A243.3,243.3,0,0,0,442.4,94.085a4.99,4.99,0,0,0-2.133,1.4c.187.867.955,1.172,1.569,1.606,1.822,1.287,3.659,2.554,5.491,3.829l-1.224.7a31.725,31.725,0,0,0-6.793-4.23c-.871,2.519-.207,4.107,2.43,5.806" fill="#1f375d"/>
    <path id="Path_23740" data-name="Path 23740" d="M367.741,60.123a5.62,5.62,0,0,1,1.72,3.236c1.444,4.565,2.832,9.149,4.2,13.737.684,2.294,1.3,4.61,1.918,6.922a10.421,10.421,0,0,1,.325,1.758.775.775,0,0,1-.738.882,1.547,1.547,0,0,1-1.074-.447,3.019,3.019,0,0,1-.441-1.181q-3.006-10.879-5.992-21.764a12.009,12.009,0,0,1-.363-2.272c-.018-.253.259-.527.444-.871" fill="#eb9b24"/>
    <path id="Path_23741" data-name="Path 23741" d="M210.1,80.963c.21-.609.469-1.5.829-2.352.3-.7.776-1.334,1.057-2.043a3.144,3.144,0,0,0,.188-1.491,2.131,2.131,0,0,0-2.078-1.888,2.244,2.244,0,0,0-1.818,2.419c.033.324.328.633.324.946a1.123,1.123,0,0,1-.4.835,1,1,0,0,1-.93.015,3.181,3.181,0,0,1-1.027-1.374,4.125,4.125,0,0,1,2.9-5.01,4.238,4.238,0,0,1,5.213,2.616,5.712,5.712,0,0,1-.306,4.72,8.154,8.154,0,0,1-.664,1.1,3.316,3.316,0,0,0-.58,3.371,1.378,1.378,0,0,1,.13.747,1.591,1.591,0,0,1-.416.847.813.813,0,0,1-1.156-.137A5.251,5.251,0,0,1,210.4,82.8a9.1,9.1,0,0,1-.3-1.841" fill="#1f375d"/>
    <path id="Path_23742" data-name="Path 23742" d="M225.491,71.794a6.676,6.676,0,0,1-1.08,3.215c-1,1.4-1.642,2.8-.81,4.533a.775.775,0,0,1-.462,1.061,1.439,1.439,0,0,1-1.155-.174,3.916,3.916,0,0,1-1.135-3.76,8.348,8.348,0,0,1,1.386-3.021,3.363,3.363,0,0,0,.393-2.958,1.846,1.846,0,0,0-3.514-.035,2.539,2.539,0,0,0-.168,1c.021.331.259.652.261.978a1.2,1.2,0,0,1-.306.883,1.035,1.035,0,0,1-.951.077,2.42,2.42,0,0,1-.978-1.086,4.066,4.066,0,0,1,2.3-5.113,4.171,4.171,0,0,1,5.362,1.743,15.452,15.452,0,0,1,.854,2.656" fill="#1f375d"/>
    <path id="Path_23743" data-name="Path 23743" d="M309.232,28.341a5.647,5.647,0,0,1,1.69-.412c1.267.173,2.524.446,3.77.742a100.371,100.371,0,0,1,17.35,6.249,5.241,5.241,0,0,1,2.238,1.486c-.155.628-.562.469-.833.416a15.963,15.963,0,0,1-1.729-.482q-9.654-3.068-19.3-6.151a5.286,5.286,0,0,1-3.181-1.848" fill="#eb9b24"/>
    <path id="Path_23744" data-name="Path 23744" d="M386.266,36.359a3.119,3.119,0,0,1,2.019-1.474,125.474,125.474,0,0,1,19.17-5.674c2.843-.61,5.707-1.124,8.572-1.626,1.335-.233,2.037.032,1.93.576-.174.885-.978.855-1.617.942a154.119,154.119,0,0,0-28.159,6.737c-.463.156-.943.258-1.915.519" fill="#eb9b24"/>
    <path id="Path_23745" data-name="Path 23745" d="M330.047,81.943c-.031-.247-.153-.526-.074-.724a9.04,9.04,0,0,1,.8-1.6,117.232,117.232,0,0,1,15.608-19.45,14.014,14.014,0,0,1,1.385-1.1c.037-.029.148.038.225.061.014.149.1.364.031.438a194.3,194.3,0,0,0-17.453,22.263c-.066.1-.307.074-.525.119" fill="#eb9b24"/>
    <path id="Path_23746" data-name="Path 23746" d="M536.3,89.634a5.447,5.447,0,0,1-.131-1.448A25.168,25.168,0,0,1,537,85.492a53.006,53.006,0,0,0,2.765-11.986c.161-1.359.4-2.71.626-4.061.021-.125.223-.219.377-.361.454-.067.508.339.5.64a54.984,54.984,0,0,1-.184,6.15,45.334,45.334,0,0,1-2.411,9.966,26.769,26.769,0,0,1-1.408,3.014c-.13.249-.469.39-.967.78" fill="#1f375d"/>
    <path id="Path_23747" data-name="Path 23747" d="M228.393,65.073A8.387,8.387,0,0,1,228.582,64a.565.565,0,0,1,.371-.3c.143-.033.4.009.461.106a9.85,9.85,0,0,1,1.036,2.007q1.007,3.427,1.847,6.9a36.521,36.521,0,0,1,.652,3.77,1.073,1.073,0,0,1-.788,1.174,1.223,1.223,0,0,1-1.5-.631,3.422,3.422,0,0,1-.232-.725c-.557-2.839-1.118-5.678-1.65-8.523-.172-.918-.262-1.851-.381-2.712" fill="#1f375d"/>
    <path id="Path_23748" data-name="Path 23748" d="M338.64,44.2c-2.159.395-4.331.729-6.473,1.2-2.172.479-4.336,1.022-6.464,1.667s-4.2,1.468-6.306,2.183c-2.075.7-3.987,1.9-6.635,2.313.422-.566.545-.893.774-1.01,1.372-.7,2.733-1.44,4.162-2a75.17,75.17,0,0,1,19.911-4.831,9.963,9.963,0,0,1,1.008,0c.008.162.015.323.023.485" fill="#eb9b24"/>
    <path id="Path_23749" data-name="Path 23749" d="M434.645,160.219c-.588.691-.94,1.166-1.352,1.58a40.46,40.46,0,0,0-8.019,10.646,3.414,3.414,0,0,1-.837.935.537.537,0,0,1-.48-.025.558.558,0,0,1-.251-.4,1.676,1.676,0,0,1,.112-.745,29.922,29.922,0,0,1,9.144-11.921c.423-.321.435-.306,1.683-.074" fill="#1f375d"/>
    <path id="Path_23750" data-name="Path 23750" d="M351.231,0c.681,1.289.347,2.743.461,4.12.12,1.455.149,2.917.287,4.369.147,1.537.344,3.072.579,4.6.221,1.442.522,2.871.787,4.306a16.347,16.347,0,0,1,.707,4.243c-.69.072-.876-.334-.977-.749-.526-2.166-1.118-4.322-1.517-6.512A64.062,64.062,0,0,1,350.51,2.587c0-.837.07-1.673.108-2.509L351.231,0" fill="#eb9b24"/>
    <path id="Path_23751" data-name="Path 23751" d="M532.389,303.27c-.078.23-.087.478-.187.522a91.766,91.766,0,0,0-14.279,7.913c-.092.062-.315-.07-.634-.151a8.9,8.9,0,0,1,.334-.85,1.3,1.3,0,0,1,.343-.376,40.3,40.3,0,0,1,12.577-7.215c.591-.207,1.3-.479,1.846.157" fill="#1f375d"/>
    <path id="Path_23752" data-name="Path 23752" d="M387.575,44.91a3.234,3.234,0,0,1,2.712-.464c2.9.673,5.806,1.356,8.693,2.1,1,.257,1.375.764,1.268,1.336-.128.688-.8.917-1.884.625-2.715-.731-5.426-1.481-8.146-2.2a4.861,4.861,0,0,1-2.643-1.4" fill="#eb9b24"/>
    <path id="Path_23753" data-name="Path 23753" d="M408.8,110.9c-.047.766.029,1.074-.092,1.221a13.967,13.967,0,0,1-1.254,1.287,31.257,31.257,0,0,0-7.078,9.723c-.142.307-.326.594-.557,1.011-.2-.255-.466-.461-.432-.585A21.426,21.426,0,0,1,408.8,110.9" fill="#1f375d"/>
    <path id="Path_23754" data-name="Path 23754" d="M389.115,4.1c-.2.387-.262.676-.44.818-4.587,3.635-8,8.375-11.906,12.646-.018.02-.127-.044-.274-.1a2.016,2.016,0,0,1,.176-.649,63.152,63.152,0,0,1,8.646-10.454,30.761,30.761,0,0,1,2.791-2.242c.2-.143.584-.021,1.007-.021" fill="#eb9b24"/>
    <path id="Path_23755" data-name="Path 23755" d="M399.523,62.839c-1.059-.7-1.9-1.263-2.752-1.812s-1.721-1.134-2.616-1.641c-.969-.549-1.973-1.04-2.974-1.532-.924-.454-1.858-.887-2.8-1.309s-1.9-.8-2.828-1.23c-.873-.406-1.951-.462-2.626-1.279.4-.516.745-.292,1.031-.176,3.019,1.218,6.086,2.337,9.025,3.725a52.758,52.758,0,0,1,5.721,3.449,1.425,1.425,0,0,1,.816,1.805" fill="#eb9b24"/>
    <path id="Path_23756" data-name="Path 23756" d="M344.622,24.748c-.662-.394-.981-1.121-1.483-1.668-.523-.568-1.047-1.135-1.543-1.726q-1.736-2.07-3.44-4.166a7.81,7.81,0,0,1-.864-1.275c-.232-.444-.495-.937-.087-1.432.289-.35,1.056-.219,1.555.4a46.29,46.29,0,0,1,5.955,8.669c.166.344.426.763-.093,1.194" fill="#eb9b24"/>
    <path id="Path_23757" data-name="Path 23757" d="M319.974,59.459a8.4,8.4,0,0,1,2.995-2.326,54.1,54.1,0,0,1,11.477-5.117,3.442,3.442,0,0,1,.928-.011c-.049.217-.042.354-.09.376-4.883,2.274-9.761,4.56-14.482,7.163-.116.064-.319-.027-.828-.085" fill="#eb9b24"/>
    <path id="Path_23758" data-name="Path 23758" d="M354.825,65.949c-.493,1.62-1.051,3.223-1.46,4.864-.395,1.579-.6,3.2-.953,4.8-.36,1.627-.125,3.4-1.129,5.093-.267-.375-.537-.583-.513-.746.447-2.97.841-5.953,1.44-8.894a29.221,29.221,0,0,1,1.523-4.367,5.342,5.342,0,0,1,.648-.987l.444.24" fill="#eb9b24"/>
    <path id="Path_23759" data-name="Path 23759" d="M539.418,92.653c-.151-.131-.491-.3-.476-.434a13.509,13.509,0,0,1,.414-2.264c.752-2.545,1.544-5.077,2.341-7.608a5.13,5.13,0,0,1,.539-.915c.269.282.583.468.565.612-.464,3.658-1.115,7.267-3.08,10.484-.036.059-.154.066-.3.125" fill="#1f375d"/>
    <path id="Path_23760" data-name="Path 23760" d="M195.8,343.924a4.871,4.871,0,0,1-.124,1.117,11.848,11.848,0,0,1-3.271,4.854,26.275,26.275,0,0,1-7.349,4.642c-.109.047-.281-.053-.623-.128,4.647-2.651,9.241-5.192,11.367-10.485" fill="#1f375d"/>
    <path id="Path_23761" data-name="Path 23761" d="M365.744,19.137c-.106-2.355,1.564-7.928,3.647-12.033a6.388,6.388,0,0,1,.994-1.129c.111.359.243.548.2.673q-2.195,6.138-4.432,12.26c-.041.111-.267.154-.407.229" fill="#eb9b24"/>
    <path id="Path_23762" data-name="Path 23762" d="M181.36,167.03c2.15-4.923,4.45-9.18,8.631-12.354.078.437.176.664.119.713a30.457,30.457,0,0,0-6.973,9.433,4.089,4.089,0,0,1-1.777,2.208" fill="#1f375d"/>
    <path id="Path_23763" data-name="Path 23763" d="M329.881,191.412c2.666,2.216,5.119,8.149,5.2,12.552-.674-.448-.468-1.121-.64-1.624-.166-.486-.28-.99-.427-1.483-.173-.575-.348-1.149-.538-1.718s-.389-1.137-.609-1.7c-.188-.478-.4-.946-.624-1.411-.257-.542-.523-1.081-.8-1.611-.242-.453-.53-.882-.762-1.34a4.169,4.169,0,0,1-.8-1.67" fill="#1f375d"/>
    <path id="Path_23764" data-name="Path 23764" d="M321.561,187.7a17.1,17.1,0,0,1,7.5,11.486,6.932,6.932,0,0,1-.646-1.108,24.91,24.91,0,0,0-6.367-9.813,6.714,6.714,0,0,1-.483-.565" fill="#1f375d"/>
    <path id="Path_23765" data-name="Path 23765" d="M182.342,66.336c.251.057.468.04.533.131A14.272,14.272,0,0,1,185.56,75.6a4.573,4.573,0,0,1-1.124,3.046,7.2,7.2,0,0,1-.944.684c1.119-2.5,1.426-3.5,1.339-4.83a14.734,14.734,0,0,0-1.582-6.132c-.242-.449-.531-.873-.76-1.328a2.9,2.9,0,0,1-.147-.7" fill="#1f375d"/>
    <path id="Path_23766" data-name="Path 23766" d="M182.157,159.512a80.377,80.377,0,0,1-4.75,11.416c-.606-.442-.116-.953-.008-1.321,1.038-3.565,3.35-8.395,4.758-10.1" fill="#1f375d"/>
    <path id="Path_23767" data-name="Path 23767" d="M421.768,169.107c-.09-.476-.224-.732-.163-.927a18.261,18.261,0,0,1,3.909-6.875,1.546,1.546,0,0,1,.6-.47,1,1,0,0,1,.679.111.491.491,0,0,1,.127.458,3.537,3.537,0,0,1-.489.892,35.292,35.292,0,0,0-4,6.283c-.065.137-.258.212-.665.528" fill="#1f375d"/>
    <path id="Path_23768" data-name="Path 23768" d="M377.734,60.741a4.429,4.429,0,0,1,.832.752c.707,1.065,1.332,2.185,2.046,3.245,1,1.482,2.059,2.923,3.063,4.4a.971.971,0,0,1,.021.692c-.064.245-.656.205-.892-.06a7.686,7.686,0,0,1-.64-.791c-.861-1.27-1.736-2.532-2.554-3.83-.636-1.008-1.212-2.056-1.78-3.1a7.2,7.2,0,0,1-.4-1.127l.3-.178" fill="#eb9b24"/>
    <path id="Path_23769" data-name="Path 23769" d="M178.348,354.281l10.358-5.813c-1.989,2.205-6.327,4.735-10.358,5.813" fill="#1f375d"/>
    <path id="Path_23770" data-name="Path 23770" d="M362.76,70.533c.6.876.193,1.774.17,2.661-.025.943-.123,1.885-.155,2.829-.028.858-.01,1.717-.011,2.575,0,.932,0,1.864,0,2.763-.506.166-.773.014-.817-.4a26.042,26.042,0,0,1,.813-10.43" fill="#eb9b24"/>
    <path id="Path_23771" data-name="Path 23771" d="M185.425,81.323c2.11-3.145,3.282-6.376,2.207-10.275.368.16.713.212.742.338a10.1,10.1,0,0,1-2.193,9.52,2.634,2.634,0,0,1-.756.417" fill="#1f375d"/>
    <path id="Path_23772" data-name="Path 23772" d="M561.136,121.769c-1.657,1.321-2.85,2.241-4.008,3.2s-1.922,2.288-3.251,3.341a4.883,4.883,0,0,1,1.652-3.2,10.906,10.906,0,0,1,5.607-3.348" fill="#1f375d"/>
    <path id="Path_23773" data-name="Path 23773" d="M40.206,77.781c.145-2.593,1.41-6.186,3.372-9.849.109.32.272.542.221.687-.995,2.805-2.014,5.6-3.037,8.4a5.454,5.454,0,0,1-.556.763" fill="#1f375d"/>
    <path id="Path_23774" data-name="Path 23774" d="M335.6,31.39a1.656,1.656,0,0,1-.4.039,1.5,1.5,0,0,1-.47-.174q-3.569-2.421-7.122-4.863c-.039-.028,0-.163,0-.4a2.918,2.918,0,0,1,.937.179c2.107,1.266,4.207,2.546,6.278,3.869a1.309,1.309,0,0,1,.784,1.353" fill="#eb9b24"/>
    <path id="Path_23775" data-name="Path 23775" d="M488.912,70.019c-1.014-1.995-1.3-4.335-3.265-5.914,1.294-.7,1.691.127,2.145.6a6.2,6.2,0,0,1,1.7,3.614c.067.577.187,1.194-.583,1.7" fill="#1f375d"/>
    <path id="Path_23776" data-name="Path 23776" d="M550.041,129.535a10.72,10.72,0,0,1,5.338-7.663c-.173.948-.946,1.263-1.363,1.819-.51.679-1.086,1.309-1.586,1.995-.449.617-.844,1.275-1.246,1.926-.392.634-.763,1.281-1.143,1.923" fill="#1f375d"/>
    <path id="Path_23777" data-name="Path 23777" d="M382.543,25.585a16.117,16.117,0,0,1,8.011-5.49c-.554,1.079-1.679,1.345-2.561,1.954-.908.626-1.842,1.218-2.712,1.892-.84.65-1.614,1.386-2.417,2.083l-.321-.439" fill="#eb9b24"/>
    <path id="Path_23778" data-name="Path 23778" d="M117.793,382.882a14.163,14.163,0,0,1,3.85-8.162c-.687,1.321-1.417,2.621-2.051,3.967-.649,1.375-1.2,2.795-1.8,4.195" fill="#1f375d"/>
    <path id="Path_23779" data-name="Path 23779" d="M695.334,127.144c1.705,3.158,1.564,6.189-.254,7.835a32.115,32.115,0,0,0,.643-4.074,26.3,26.3,0,0,0-.389-3.761" fill="#1f375d"/>
    <path id="Path_23780" data-name="Path 23780" d="M409.693,114.952a14.969,14.969,0,0,1-4.147,4.459c.2-1.3.687-2.151,2.178-3.725.457-.482.862-1.094,1.644-1.066.111,0,.214.214.325.332" fill="#1f375d"/>
    <path id="Path_23781" data-name="Path 23781" d="M232.561,80.982a1.074,1.074,0,0,1-1.2-1.022,1.069,1.069,0,0,1,2.125-.235,1.041,1.041,0,0,1-.93,1.257" fill="#1f375d"/>
    <path id="Path_23782" data-name="Path 23782" d="M225.013,82.993c-.421.372-.663.748-.985.836a.987.987,0,0,1-1.118-1.016c.019-.485.6-1.049.995-.856a5.546,5.546,0,0,1,1.108,1.036" fill="#1f375d"/>
    <path id="Path_23783" data-name="Path 23783" d="M214.132,87.035c-.2.149-.483.511-.823.578a.912.912,0,0,1-.976-1.148.782.782,0,0,1,.92-.665c.561.046.928.484.879,1.235" fill="#1f375d"/>
    <path id="Path_23784" data-name="Path 23784" d="M494.719,302.056l-.046-.026.046.026" fill="#1f375d"/>
    <path id="Path_23785" data-name="Path 23785" d="M486.456,448.023a.271.271,0,0,1,.08.372c-.361.419-.721.842-1.071,1.254-1.3-.392-.259-1.033-.387-1.556.548.044,1,.53,1.378-.07" fill="#00babe"/>
    <path id="Path_23786" data-name="Path 23786" d="M486.9,323.441l-.1.216s-.224-.078-.224-.082c-.123-.337-.247-.67-.37-1l.237-.1.453.966" fill="#00babe"/>
    <path id="Path_23787" data-name="Path 23787" d="M484.954,318.823l-.125.187s-.138-.177-.138-.185v-1.433l.263.011Z" fill="#00babe"/>
    <path id="Path_23788" data-name="Path 23788" d="M219.466,154.9a33.316,33.316,0,0,0,15,3.33c-.178,1.527-.355,3.053-.556,4.773a5.512,5.512,0,0,0-1.017.882,4.109,4.109,0,0,0-.951,1.749,43.655,43.655,0,0,0-.25,5.114c.006,1.8.146,3.6.239,5.394s.27,3.592.286,5.389c.016,1.881-.155,3.763-.178,5.645a77.926,77.926,0,0,1-1.724,13.747c-.128.665-.354,1.31-.669,2.447-.3-1.213-.535-1.958-.676-2.719-1.075-5.809-2.074-11.632-3.207-17.43-1.758-8.992-3.643-17.959-6.059-26.8a13.155,13.155,0,0,1-.236-1.517" fill="#00babe"/>
    <path id="Path_23789" data-name="Path 23789" d="M237.819,246.654c.313-1.844.706-3.581.887-5.34.359-3.486.655-6.981.861-10.479a3.515,3.515,0,0,1,1.142-2.7,40.653,40.653,0,0,0,2.8-3.045c.619.123.573.735.652,1.157a49.3,49.3,0,0,0,7,17.537,13.156,13.156,0,0,1,.7,1.363c.028.057-.032.157-.075.336a1.6,1.6,0,0,1-.6.2c-3.282-.267-6.476.439-9.7.85a9.841,9.841,0,0,1-3.673.122" fill="#00babe"/>
    <path id="Path_23790" data-name="Path 23790" d="M280.254,238.23c.384,1.258-.134,2.306-.368,3.373a17.7,17.7,0,0,1-2.631,6.364,13.864,13.864,0,0,1-2.379,2.663,3.294,3.294,0,0,1-4.257.21,7.814,7.814,0,0,1-.839-.591q-4.578-3.726-9.143-7.468a7.592,7.592,0,0,1-1.253-1.281c-1.142-1.526-.6-3.1,1.245-3.5a18.765,18.765,0,0,1,3.307-.406c1.537-.051,3.079.011,4.618.063q5.129.172,10.256.391c.5.02.988.122,1.444.181m-1.356,1.061a3.61,3.61,0,0,0-.715-.169c-3.5-.114-7.009-.241-10.514-.307-1.792-.033-3.589.01-5.38.1-.8.041-1.868-.167-2.177.9-.248.855.489,1.417,1.069,1.894,3.236,2.662,6.459,5.343,9.769,7.912,1.5,1.164,2.432.968,3.846-.371,2.174-2.059,4.072-6.647,4.1-9.957" fill="#1f375d"/>
    <path id="Path_23791" data-name="Path 23791" d="M277.93,209.67c-.606-2.706-.856-5.426-1.282-8.266.3.2.516.257.536.355.429,2.163.855,4.327,1.237,6.5a4.35,4.35,0,0,1-.108,1.244c-.007.043-.148.068-.383.168" fill="#1f375d"/>
    <path id="Path_23792" data-name="Path 23792" d="M285.892,205.326a16.321,16.321,0,0,1,6.329,3.835c-.127.06-.306.206-.372.166-1.522-.925-3.04-1.859-4.541-2.819a17.648,17.648,0,0,1-1.416-1.182" fill="#1f375d"/>
    <path id="Path_23793" data-name="Path 23793" d="M247.79,223.753c.935,2.618,1.87,5.237,2.983,8.351a14.9,14.9,0,0,1-2.983-8.351" fill="#1f375d"/>
    <path id="Path_23794" data-name="Path 23794" d="M275.678,208.538c1.283,2.863,1.374,3.976.749,6.445-.273-2.344-.511-4.394-.749-6.445" fill="#1f375d"/>
    <path id="Path_23795" data-name="Path 23795" d="M298.531,214.276l-4.163-3.512a4,4,0,0,1,2.555,1.159,3.92,3.92,0,0,1,1.608,2.353" fill="#1f375d"/>
    <path id="Path_23796" data-name="Path 23796" d="M198.245,164.135c-1.043,1.087-1.9,1.873-2.624,2.767a21.2,21.2,0,0,0-2.022,2.946c-.567,1.01-.964,2.115-1.528,3.385-.381-1.647-.312-2.01.588-3.737a11.094,11.094,0,0,1,5.586-5.361" fill="#1f375d"/>
    <path id="Path_23797" data-name="Path 23797" d="M197.228,206.692a10.789,10.789,0,0,1-3.473-7.147c.738,1.568,1.242,2.717,1.813,3.831s1.449,2.041,1.66,3.316" fill="#1f375d"/>
    <path id="Path_23798" data-name="Path 23798" d="M196.937,170.656c-1.1,2.2-1.925,3.838-2.823,5.626a1.489,1.489,0,0,1-.1-1.7,7.77,7.77,0,0,1,2.918-3.925" fill="#1f375d"/>
    <path id="Path_23799" data-name="Path 23799" d="M246.641,171.986c.085-1.711.17-3.423.269-5.4a6.7,6.7,0,0,1-.269,5.4" fill="#1f375d"/>
    <path id="Path_23800" data-name="Path 23800" d="M201.077,243.325c.674-.04,1.342-.09,2.011-.116,2.829-.113,5.66-.188,8.488-.336a39.172,39.172,0,0,1,8.223.1c1.027.163,2.082.292,2.5,1.474a2.575,2.575,0,0,1-1.055,2.945c-2.4,2.077-4.844,4.108-7.292,6.131a37.55,37.55,0,0,1-3.068,2.343,3.557,3.557,0,0,1-4.907-.392,12.371,12.371,0,0,1-1.823-2.155,20.459,20.459,0,0,1-3.228-9.129,3.5,3.5,0,0,1,.149-.866m1,1.168a24.109,24.109,0,0,0,2.141,6.646,15.64,15.64,0,0,0,1.861,2.758c1.7,2,2.727,2.141,4.781.526,3.1-2.435,6.111-4.972,9.156-7.471a6.052,6.052,0,0,0,.739-.71c.826-.95.553-1.9-.673-2.014-2.041-.182-4.1-.3-6.146-.277-3.594.04-7.186.2-10.779.326a7.338,7.338,0,0,0-1.08.216" fill="#1f375d"/>
    <path id="Path_23801" data-name="Path 23801" d="M235.23,237.1c.267,3.12-.4,5.6-2.149,7.254.235-.752.375-1.207.517-1.661.153-.489.319-.974.459-1.467s.285-.989.375-1.492.117-1.021.173-1.531c.064-.586.064-.586.625-1.1" fill="#1f375d"/>
    <path id="Path_23802" data-name="Path 23802" d="M196.4,231.167q1.019-3.222,2.036-6.444c-.028,2.352-.219,4.653-2.036,6.444" fill="#1f375d"/>
    <path id="Path_23803" data-name="Path 23803" d="M199.854,228.765A11.945,11.945,0,0,1,198,233.95a9.006,9.006,0,0,1,1.856-5.185" fill="#1f375d"/>
    <path id="Path_23804" data-name="Path 23804" d="M245.847,120.952c-.416.254-.852.48-1.245.765a9.506,9.506,0,0,1-4.236,1.687,2.5,2.5,0,0,1-2.52-.918,2.728,2.728,0,0,1-.164-2.912,4.36,4.36,0,0,1,1.947-1.969,7.069,7.069,0,0,1,4.468-.729c1.676.213,2.3,1.184,1.937,2.881-.086.4-.146.815-.218,1.223Zm-5.5-2.547a2.906,2.906,0,0,0-2.014,2.013,1.526,1.526,0,0,0,1.317,2.048,2.975,2.975,0,0,0,2.322-.556L240.35,118.4" fill="#1f375d"/>
    <path id="Path_23805" data-name="Path 23805" d="M234.293,117.709c-.291-.356-.757-.68-.818-1.067a2.3,2.3,0,0,1,.365-1.422,13.641,13.641,0,0,1,6.009-4.972,2.731,2.731,0,0,1,1.244-.083.723.723,0,0,1,.576.943,2.945,2.945,0,0,1-.32.686,19.737,19.737,0,0,1-5.713,5.4,8.493,8.493,0,0,1-1.343.516" fill="#1f375d"/>
    <path id="Path_23806" data-name="Path 23806" d="M215.9,125.58c-.559-.242-1.065-.5-1.6-.681a14.847,14.847,0,0,0-1.493-.339c.039-1.179,1.157-.541,1.593-1.189-.238-.4-.509-.86-.817-1.382,1.826.277,2.356,1.114,2.317,3.591" fill="#1f375d"/>
    <path id="Path_23807" data-name="Path 23807" d="M245.816,120.98l.941.569c-.522,1.709-.525,1.709-1.679,2.6-.279-.613.333-.891.509-1.328.157-.391.424-.736.607-1.118a.482.482,0,0,0-.346-.751l-.032.028" fill="#1f375d"/>
    <path id="Path_23808" data-name="Path 23808" d="M460.916,88.3c-1.593.116-2.845,1.352-4.43,1.654a16.626,16.626,0,0,1,6.2-3.279l.5,1.255c2.741-.944,4.8-3.119,7.639-3.628a1.2,1.2,0,0,1,.038.354.312.312,0,0,1-.147.164q-5.426,2.922-10.858,5.828a4.918,4.918,0,0,1-1.964.6c1.022-.6,2.061-1.17,3.059-1.806.434-.276.409-.691-.04-1.141" fill="#1f375d"/>
    <path id="Path_23809" data-name="Path 23809" d="M527.955,87.432c.491-4.063,1.853-9.235,2.868-11.15a51.955,51.955,0,0,1-2.868,11.15" fill="#1f375d"/>
    <path id="Path_23810" data-name="Path 23810" d="M522.268,172.162l-5.186-12.642c2.014,2.639,5.06,9.71,5.186,12.642" fill="#1f375d"/>
    <path id="Path_23811" data-name="Path 23811" d="M441.889,167.7c.03.067.1.151.082.2a1.6,1.6,0,0,1-.24.443c-1.311,1.588-2.629,3.171-4.143,4.993,1.261-2.941,2.378-4.368,4.3-5.635" fill="#1f375d"/>
  </g>
</svg>
